HIERARCHY
ROOT hip
{
  OFFSET 0.0 0.0 0.0
  CHANNELS 6 Xposition Yposition Zposition Zrotation Yrotation Xrotation
  JOINT abdomen
  {
    OFFSET 0.0 20.6881 -0.73152
    CHANNELS 3 Zrotation Xrotation Yrotation
    JOINT chest
    {
      OFFSET 0.0 11.7043 -0.48768
      CHANNELS 3 Zrotation Xrotation Yrotation
      JOINT neck
      {
        OFFSET 0.0 22.1894 -2.19456
        CHANNELS 3 Zrotation Xrotation Yrotation
        JOINT head
        {
          OFFSET -0.24384 7.07133 1.2192
          CHANNELS 3 Zrotation Xrotation Yrotation
          JOINT leftEye
          {
            OFFSET 4.14528 8.04674 8.04672
            CHANNELS 3 Zrotation Xrotation Yrotation
            End Site
            {
              OFFSET 1.0 0.0 0.0
            }
          }
          JOINT rightEye
          {
            OFFSET -3.6576 8.04674 8.04672
            CHANNELS 3 Zrotation Xrotation Yrotation
            End Site
            {
              OFFSET 1.0 0.0 0.0
            }
          }
        }
      }
      JOINT rCollar
      {
        OFFSET -2.68224 19.2634 -4.8768
        CHANNELS 3 Zrotation Xrotation Yrotation
        JOINT rShldr
        {
          OFFSET -8.77824 -1.95073 1.46304
          CHANNELS 3 Zrotation Xrotation Yrotation
          JOINT rForeArm
          {
            OFFSET -28.1742 -1.7115 0.48768
            CHANNELS 3 Zrotation Xrotation Yrotation
            JOINT rHand
            {
              OFFSET -22.5879 0.773209 7.07136
              CHANNELS 3 Zrotation Xrotation Yrotation
              JOINT rThumb1
              {
                OFFSET -1.2192 -0.487915 3.41376
                CHANNELS 3 Zrotation Xrotation Yrotation
                JOINT rThumb2
                {
                  OFFSET -3.37035 -0.52449 3.41376
                  CHANNELS 3 Zrotation Xrotation Yrotation
                  End Site
                  {
                    OFFSET -1.78271 -1.18214 1.43049
                  }
                }
              }
              JOINT rIndex1
              {
                OFFSET -7.75947 0.938293 5.60832
                CHANNELS 3 Zrotation Xrotation Yrotation
                JOINT rIndex2
                {
                  OFFSET -2.54057 -0.884171 1.56538
                  CHANNELS 3 Zrotation Xrotation Yrotation
                  End Site
                  {
                    OFFSET -1.62519 -0.234802 1.16502
                  }
                }
              }
              JOINT rMid1
              {
                OFFSET -8.24714 1.18213 3.41376
                CHANNELS 3 Zrotation Xrotation Yrotation
                JOINT rMid2
                {
                  OFFSET -3.10165 -0.590103 1.0647
                  CHANNELS 3 Zrotation Xrotation Yrotation
                  End Site
                  {
                    OFFSET -2.48547 -0.328903 0.83742
                  }
                }
              }
              JOINT rRing1
              {
                OFFSET -8.82822 0.546677 1.51678
                CHANNELS 3 Zrotation Xrotation Yrotation
                JOINT rRing2
                {
                  OFFSET -2.60934 -0.819778 -0.0198488
                  CHANNELS 3 Zrotation Xrotation Yrotation
                  End Site
                  {
                    OFFSET -2.33842 -0.294052 0.168128
                  }
                }
              }
              JOINT rPinky1
              {
                OFFSET -8.27202 -0.0477905 -0.4584
                CHANNELS 3 Zrotation Xrotation Yrotation
                JOINT rPinky2
                {
                  OFFSET -1.82734 -0.647385 -0.700984
                  CHANNELS 3 Zrotation Xrotation Yrotation
                  End Site
                  {
                    OFFSET -1.69225 -0.51767 -0.607171
                  }
                }
              }
            }
          }
        }
      }
      JOINT lCollar
      {
        OFFSET 2.68224 19.2634 -4.8768
        CHANNELS 3 Zrotation Xrotation Yrotation
        JOINT lShldr
        {
          OFFSET 8.77824 -1.95073 1.46304
          CHANNELS 3 Zrotation Xrotation Yrotation
          JOINT lForeArm
          {
            OFFSET 28.1742 -1.7115 0.48768
            CHANNELS 3 Zrotation Xrotation Yrotation
            JOINT lHand
            {
              OFFSET 22.5879 0.773209 7.07136
              CHANNELS 3 Zrotation Xrotation Yrotation
              JOINT lThumb1
              {
                OFFSET 1.2192 -0.487915 3.41376
                CHANNELS 3 Zrotation Xrotation Yrotation
                JOINT lThumb2
                {
                  OFFSET 3.37035 -0.52449 3.41376
                  CHANNELS 3 Zrotation Xrotation Yrotation
                  End Site
                  {
                    OFFSET 1.78271 -1.18214 1.43049
                  }
                }
              }
              JOINT lIndex1
              {
                OFFSET 7.75947 0.938293 5.60832
                CHANNELS 3 Zrotation Xrotation Yrotation
                JOINT lIndex2
                {
                  OFFSET 2.54057 -0.884171 1.56538
                  CHANNELS 3 Zrotation Xrotation Yrotation
                  End Site
                  {
                    OFFSET 1.62519 -0.234802 1.16502
                  }
                }
              }
              JOINT lMid1
              {
                OFFSET 8.24714 1.18213 3.41376
                CHANNELS 3 Zrotation Xrotation Yrotation
                JOINT lMid2
                {
                  OFFSET 3.10165 -0.590103 1.0647
                  CHANNELS 3 Zrotation Xrotation Yrotation
                  End Site
                  {
                    OFFSET 2.48547 -0.328903 0.83742
                  }
                }
              }
              JOINT lRing1
              {
                OFFSET 8.82822 0.546677 1.51678
                CHANNELS 3 Zrotation Xrotation Yrotation
                JOINT lRing2
                {
                  OFFSET 2.60934 -0.819778 -0.0198488
                  CHANNELS 3 Zrotation Xrotation Yrotation
                  End Site
                  {
                    OFFSET 2.33842 -0.294052 0.168128
                  }
                }
              }
              JOINT lPinky1
              {
                OFFSET 8.27202 -0.0477905 -0.4584
                CHANNELS 3 Zrotation Xrotation Yrotation
                JOINT lPinky2
                {
                  OFFSET 1.82734 -0.647385 -0.700984
                  CHANNELS 3 Zrotation Xrotation Yrotation
                  End Site
                  {
                    OFFSET 1.69225 -0.51767 -0.607171
                  }
                }
              }
            }
          }
        }
      }
    }
  }
  JOINT rButtock
  {
    OFFSET -8.77824 4.35084 1.2192
    CHANNELS 3 Zrotation Xrotation Yrotation
    JOINT rThigh
    {
      OFFSET 0.0 -1.70687 -2.19456
      CHANNELS 3 Zrotation Xrotation Yrotation
      JOINT rShin
      {
        OFFSET 0.0 -36.8199 0.73152
        CHANNELS 3 Zrotation Xrotation Yrotation
        JOINT rFoot
        {
          OFFSET 0.73152 -45.1104 -5.12064
          CHANNELS 3 Zrotation Xrotation Yrotation
          End Site
          {
            OFFSET -1.1221 -3.69964 12.103
          }
        }
      }
    }
  }
  JOINT lButtock
  {
    OFFSET 8.77824 4.35084 1.2192
    CHANNELS 3 Zrotation Xrotation Yrotation
    JOINT lThigh
    {
      OFFSET 0.0 -1.70687 -2.19456
      CHANNELS 3 Zrotation Xrotation Yrotation
      JOINT lShin
      {
        OFFSET 0.0 -36.8199 0.73152
        CHANNELS 3 Zrotation Xrotation Yrotation
        JOINT lFoot
        {
          OFFSET -0.73152 -45.1104 -5.12064
          CHANNELS 3 Zrotation Xrotation Yrotation
          End Site
          {
            OFFSET 1.1221 -3.69964 12.103
          }
        }
      }
    }
  }
}
MOTION
Frames: 4
Frame Time: 0.00833333
-0.8373200000000001 80.9567 44.3596 -5.8531 -1.9181 1.1422 8.21654 3.58908 3.27373 0.814351 -4.26992 0.97341 3.50966 -0.944704 1.07022 -1.78712 -10.0585 0.934456 -0.0 0.0 0.0 -0.0 0.0 0.0 5.98943e-14 7.75309e-14 -2.97866e-14 74.2181 26.1059 6.40603 -13.8362 -6.82204 25.2268 -0.0725219 -7.68216 -1.08622 -9.87657e-10 3.61096e-10 2.30122e-10 -1.70729e-09 6.23578e-10 3.95449e-10 -9.87658e-10 3.61099e-10 2.30115e-10 7.73091 5.47488 0.417314 -9.87658e-10 3.61099e-10 2.30119e-10 2.90554 0.965183 0.102902 -9.87655e-10 3.61098e-10 2.30116e-10 10.2786 0.731801 0.0259123 -9.87664e-10 3.61098e-10 2.3013e-10 2.22167 -0.733487 -0.20892 -5.666e-14 -1.19757e-13 4.46209e-14 -15.2452 -24.1473 14.9785 19.3557 -12.2224 -37.1379 0.109649 -9.40776 1.33428 -1.3128e-09 -1.57653e-09 -6.03325e-11 -2.26904e-09 -2.72371e-09 -1.1397e-10 -1.31281e-09 -1.57653e-09 -6.032e-11 -7.73091 5.47488 -0.417314 -1.3128e-09 -1.57653e-09 -6.03299e-11 -2.90554 0.965183 -0.102902 -1.31281e-09 -1.57653e-09 -6.0331e-11 -10.2786 0.731801 -0.0259123 -1.3128e-09 -1.57653e-09 -6.03385e-11 -2.22167 -0.733487 0.20892 -2.03217e-16 0.0 -3.88251e-19 6.94926 18.4995 0.978018 -0.00535955 9.09648 0.25198 -5.72735 -7.40705 -25.8385 2.03217e-16 0.0 3.88251e-19 11.5525 -39.765 4.15178 0.141063 24.2776 -0.105567 2.28249 -2.63404 13.5033
-0.6403800000000004 80.8178 45.5972 -5.6324 -2.3932 0.8546 7.87682 3.59378 3.30639 0.957805 -4.28062 0.981761 3.58703 -0.974535 1.11239 -1.81203 -9.70574 0.996954 -0.0 0.0 0.0 -0.0 0.0 0.0 -1.05721e-15 2.36436e-13 -2.11954e-14 74.3177 26.0502 6.10999 -13.9475 -6.91205 25.4486 -0.0557304 -6.75054 -0.953117 -1.82591e-09 1.32502e-09 -3.04208e-11 -3.15453e-09 2.28796e-09 -5.69805e-11 -1.82591e-09 1.32503e-09 -3.04298e-11 7.73091 5.47488 0.417314 -1.82591e-09 1.32503e-09 -3.04267e-11 2.90554 0.965183 0.102902 -1.82591e-09 1.32503e-09 -3.04299e-11 10.2786 0.731801 0.0259123 -1.82591e-09 1.32503e-09 -3.04117e-11 2.22167 -0.733487 -0.20892 -1.19068e-13 -3.05388e-13 9.68353e-14 -15.2283 -24.2911 14.9612 19.3308 -12.1927 -37.0791 0.115227 -9.63817 1.3676 -1.90032e-09 -1.63962e-09 -2.77255e-10 -3.28117e-09 -2.82695e-09 -4.93426e-10 -1.90033e-09 -1.63962e-09 -2.77246e-10 -7.73091 5.47488 -0.417314 -1.90032e-09 -1.63962e-09 -2.77256e-10 -2.90554 0.965183 -0.102902 -1.90032e-09 -1.63962e-09 -2.77255e-10 -10.2786 0.731801 -0.0259123 -1.90031e-09 -1.63962e-09 -2.77264e-10 -2.22167 -0.733487 0.20892 -2.03217e-16 0.0 -3.88251e-19 6.41771 18.832 1.20332 -0.0105636 10.4041 0.278698 -5.67581 -7.31964 -25.6484 2.03217e-16 0.0 3.88251e-19 11.0577 -39.1319 3.87872 0.150223 24.948 -0.101481 1.94377 -1.69685 12.5035
-0.42203999999999997 80.7404 46.844030000000004 -5.342 -2.9429 0.6144 7.46683 3.50631 3.39038 1.08402 -4.29216 1.00251 3.64381 -1.0158 1.15108 -1.80418 -9.3194 1.06051 -0.0 0.0 0.0 -0.0 0.0 0.0 -3.97601e-14 3.29194e-13 -2.85256e-14 74.4284 25.8995 5.78726 -14.0257 -6.97516 25.6057 -0.0425454 -5.87674 -0.828859 -2.07766e-09 1.58107e-09 -2.43656e-10 -3.58873e-09 2.72902e-09 -4.26725e-10 -2.07767e-09 1.58107e-09 -2.43665e-10 7.73091 5.47488 0.417314 -2.07767e-09 1.58107e-09 -2.43662e-10 2.90554 0.965183 0.102902 -2.07767e-09 1.58107e-09 -2.43666e-10 10.2786 0.731801 0.0259123 -2.07767e-09 1.58107e-09 -2.43646e-10 2.22167 -0.733487 -0.20892 -1.49418e-13 -4.11099e-13 1.2588e-13 -15.2289 -24.4086 14.9366 19.3038 -12.1606 -37.0155 0.117897 -9.74459 1.38301 -2.00539e-09 -1.36471e-09 -4.33293e-10 -3.46055e-09 -2.34793e-09 -7.6434e-10 -2.0054e-09 -1.36471e-09 -4.33287e-10 -7.73091 5.47488 -0.417314 -2.00539e-09 -1.36471e-09 -4.33297e-10 -2.90554 0.965183 -0.102902 -2.00539e-09 -1.36471e-09 -4.33293e-10 -10.2786 0.731801 -0.0259123 -2.00538e-09 -1.36471e-09 -4.33303e-10 -2.22167 -0.733487 0.20892 -2.03217e-16 0.0 -3.88251e-19 5.77313 18.9687 1.42327 -0.0176288 11.8413 0.304228 -5.53162 -7.05689 -25.3965 2.03217e-16 0.0 3.88251e-19 10.5384 -38.609 3.61305 0.159301 25.5755 -0.0958007 1.60791 -0.560657 11.6311
-0.17767 80.7228 48.092 -4.9672 -3.5467 0.4462 6.95095 3.27237 3.56581 1.18799 -4.29716 1.04599 3.66254 -1.07481 1.18282 -1.71816 -8.86153 1.12645 -0.0 0.0 0.0 -0.0 0.0 0.0 -4.77897e-14 3.28733e-13 -6.71057e-14 74.5542 25.6275 5.43089 -14.0666 -7.00777 25.6892 -0.0317685 -5.0585 -0.712874 -1.3538e-09 6.64511e-10 -4.16596e-10 -2.33768e-09 1.14348e-09 -7.25485e-10 -1.3538e-09 6.64514e-10 -4.16603e-10 7.73091 5.47488 0.417314 -1.3538e-09 6.64515e-10 -4.166e-10 2.90554 0.965183 0.102902 -1.3538e-09 6.64515e-10 -4.16605e-10 10.2786 0.731801 0.0259123 -1.3538e-09 6.64513e-10 -4.16586e-10 2.22167 -0.733487 -0.20892 -1.29388e-13 -4.00198e-13 1.20609e-13 -15.2451 -24.4927 14.8982 19.2734 -12.1245 -36.9438 0.118353 -9.74476 1.3831 -1.28616e-09 -4.62984e-10 -4.96954e-10 -2.21679e-09 -7.88265e-10 -8.70033e-10 -1.28617e-09 -4.62989e-10 -4.96945e-10 -7.73091 5.47488 -0.417314 -1.28615e-09 -4.62982e-10 -4.96954e-10 -2.90554 0.965183 -0.102902 -1.28616e-09 -4.62982e-10 -4.9695e-10 -10.2786 0.731801 -0.0259123 -1.28615e-09 -4.62982e-10 -4.9696e-10 -2.22167 -0.733487 0.20892 -2.03217e-16 0.0 -3.88251e-19 4.95923 18.8926 1.6718 -0.0260052 13.3882 0.329524 -5.29678 -6.62194 -25.075 2.03217e-16 0.0 3.88251e-19 9.9617 -38.2519 3.29298 0.168017 26.1249 -0.0873032 1.23635 0.990382 10.9313
